<svg width="36" height="36" viewBox="0 0 36 36" fill="none" xmlns="http://www.w3.org/2000/svg">
<circle cx="18.3536" cy="11.994" r="6.30769" fill="white" stroke="#333333" stroke-width="2"/>
<path d="M26.7938 29.0297C26.8457 29.2747 26.776 29.4926 26.6081 29.6718C26.4302 29.8616 26.1423 30 25.8065 30H18.5L11.1935 30C10.8577 30 10.5697 29.8616 10.3919 29.6718C10.224 29.4926 10.1543 29.2747 10.2062 29.0297C10.3073 28.5528 10.4448 28.0863 10.6167 27.635C11.0442 26.5123 11.6844 25.4841 12.5075 24.6177C14.106 22.9351 16.2627 22 18.5 22C20.7373 22 22.894 22.9351 24.4925 24.6177C25.6468 25.8327 26.441 27.3657 26.7938 29.0297Z" fill="white" stroke="#333333" stroke-width="2" stroke-linecap="round" stroke-linejoin="round"/>
</svg>
