<svg width="36" height="36" viewBox="0 0 36 36" fill="none" xmlns="http://www.w3.org/2000/svg">
<g clip-path="url(#clip0)">
<mask id="path-1-outside-1" maskUnits="userSpaceOnUse" x="0.157367" y="0.171573" width="39.598" height="39.598" fill="black">
<rect fill="white" x="0.157367" y="0.171573" width="39.598" height="39.598"/>
<path d="M23.8202 23.8204C19.9188 27.7217 13.6767 27.805 9.87798 24.0063C6.07928 20.2076 6.1625 13.9654 10.0639 10.0641C13.9652 6.16269 20.2074 6.07946 24.0061 9.87816C27.8048 13.6769 27.7216 19.919 23.8202 23.8204Z"/>
</mask>
<path d="M23.8202 23.8204C19.9188 27.7217 13.6767 27.805 9.87798 24.0063C6.07928 20.2076 6.1625 13.9654 10.0639 10.0641C13.9652 6.16269 20.2074 6.07946 24.0061 9.87816C27.8048 13.6769 27.7216 19.919 23.8202 23.8204Z" fill="white"/>
<path d="M29.4248 30.8391C29.8153 31.2297 30.4484 31.2297 30.839 30.8391C31.2295 30.4486 31.2295 29.8155 30.839 29.4249L29.4248 30.8391ZM23.1131 24.5275L29.4248 30.8391L30.839 29.4249L24.5273 23.1133L23.1131 24.5275ZM22.406 22.4062C19.2499 25.5623 14.2745 25.5744 11.2922 22.5921L8.46377 25.4205C13.0788 30.0355 20.5878 29.8812 25.2344 25.2346L22.406 22.4062ZM11.2922 22.5921C8.30985 19.6097 8.32198 14.6344 11.4781 11.4783L8.64966 8.64984C4.00303 13.2965 3.8487 20.8054 8.46377 25.4205L11.2922 22.5921ZM11.4781 11.4783C14.6342 8.32216 19.6095 8.31003 22.5919 11.2924L25.4203 8.46395C20.8052 3.84888 13.2963 4.00321 8.64966 8.64984L11.4781 11.4783ZM22.5919 11.2924C25.5742 14.2747 25.5621 19.25 22.406 22.4062L25.2344 25.2346C29.881 20.588 30.0354 13.079 25.4203 8.46395L22.5919 11.2924Z" fill="#333333" mask="url(#path-1-outside-1)"/>
</g>
<defs>
<clipPath id="clip0">
<rect width="26" height="26" fill="white" transform="translate(5 5)"/>
</clipPath>
</defs>
</svg>
