<svg width="59" height="24" viewBox="0 0 59 24" fill="none" xmlns="http://www.w3.org/2000/svg">
<path d="M47.9914 0.491775C47.5856 0.491775 47.2812 0.786839 47.2812 1.18026V11.0649C47.2812 14.1631 45.1505 16.622 41.1427 16.622C37.6423 16.622 36.1204 14.8024 35.7653 12.3927V8.60605C35.7653 5.06528 33.0258 0 24.2494 0H23.9957C16.6397 0 13.0378 3.4916 11.8203 4.52433V1.22944C11.8203 0.836017 11.5159 0.540952 11.1101 0.540952H0.710232C0.304385 0.491775 0 0.836017 0 1.22944V22.6216C0 23.015 0.304385 23.3101 0.710232 23.3101H11.1608C11.5666 23.3101 11.871 23.015 11.871 22.6216V12.737C11.871 9.49125 14.1032 7.17991 18.1109 7.17991C21.7635 7.17991 23.3869 8.9503 23.742 11.5075V14.9499C23.742 18.6383 26.2786 23.8511 35.0043 23.8511H35.3087C42.5125 23.8511 46.1144 20.3595 47.2304 19.2776V22.6216C47.2304 23.015 47.5348 23.3101 47.9407 23.3101H58.2898C58.6956 23.3101 59 23.015 59 22.6216V1.22944C59 0.836017 58.6956 0.540952 58.2898 0.540952H47.9914V0.491775Z" fill="#333333"/>
</svg>
