<svg width="204" height="24" viewBox="0 0 204 24" fill="none" xmlns="http://www.w3.org/2000/svg">
<path fill-rule="evenodd" clip-rule="evenodd" d="M2.05073 1.0506H11.6057C11.9099 1.0506 12.1564 1.29711 12.1564 1.60134V4.79991C13.2217 3.81298 16.4972 0.576843 23.128 0.576843H23.3649C31.2974 0.576843 33.7839 5.27366 33.7839 8.62847V21.7329C33.7839 22.0372 33.5374 22.2837 33.2332 22.2837H23.5596C23.2558 22.2837 23.0093 22.0372 23.0093 21.7329V12.1404C23.0093 9.29879 21.5496 7.2466 17.8791 7.2466C14.248 7.2466 12.2352 9.41746 12.2352 12.4172V21.7329C12.2352 22.0372 11.9882 22.2837 11.6845 22.2837H2.05073C1.7465 22.2837 1.5 22.0372 1.5 21.7329V1.60134C1.5 1.29711 1.7465 1.0506 2.05073 1.0506Z" fill="white"/>
<path fill-rule="evenodd" clip-rule="evenodd" d="M55.8822 12.2589L48.7785 13.5216C46.9233 13.8378 46.1737 14.2717 46.1737 15.3374V15.3772C46.1737 16.3633 46.8839 17.5477 49.5286 17.5477C53.4749 17.5477 55.8822 15.3772 55.8822 13.167V12.2589ZM46.1343 22.6779H45.7C38.5959 22.6779 35.8724 19.3235 35.8724 15.8505V15.3772C35.8724 11.8245 38.162 9.73288 44.4762 9.22018L54.6987 8.31252C55.6063 8.19385 55.8822 7.87816 55.8822 7.28665C55.8822 6.49675 55.4483 5.66835 51.2651 5.66835H51.107C47.3815 5.66835 46.6342 6.67864 46.4207 7.41173C46.3478 7.66144 46.1284 7.83876 45.8681 7.83876H36.3861V7.60142C36.3861 4.76069 37.2543 0.49823 50.0018 0.49823H52.2121C65.4728 0.49823 66.3805 4.44409 66.3805 7.3256V15.1793C66.3805 15.7717 66.5385 16.0874 67.2886 16.0874H67.8609C68.1765 16.0874 68.4331 16.3435 68.4331 16.6592V21.7116C68.4331 22.0273 68.1765 22.2834 67.8609 22.2834H59.5132C57.965 22.2834 56.8292 21.5961 56.3119 20.2903C56.1662 19.9215 55.7259 19.7886 55.4166 20.0379C54.0494 21.1434 51.2976 22.6779 46.1343 22.6779Z" fill="white"/>
<path fill-rule="evenodd" clip-rule="evenodd" d="M67.3098 1.05063H77.5291C77.7555 1.05063 77.9603 1.18625 78.0482 1.39518L83.7439 14.8639L89.166 1.40389C89.2526 1.19083 89.4597 1.05063 89.6897 1.05063H99.443C99.8536 1.05063 100.127 1.47536 99.9567 1.84878L90.8013 21.9533C90.7092 22.1545 90.509 22.2837 90.2877 22.2837H76.8391C76.621 22.2837 76.4226 22.1581 76.3296 21.9611L66.8003 1.85657C66.6226 1.48224 66.8956 1.05063 67.3098 1.05063Z" fill="white"/>
<path fill-rule="evenodd" clip-rule="evenodd" d="M110.027 8.86451H122.261C121.827 6.85218 120.21 5.66824 116.144 5.66824C112.08 5.66824 110.54 6.97039 110.027 8.86451ZM132.918 14.6271C132.918 17.5874 131.102 22.8753 117.25 22.8753H115.157C102.095 22.8753 99.3711 16.9162 99.3711 11.9431V11.1541C99.3711 6.25978 101.897 0.458282 115.039 0.458282H117.21C131.063 0.458282 132.997 6.93102 132.997 12.0219V12.6496C132.997 12.957 132.747 13.2063 132.44 13.2063H109.908C110.225 15.4161 112.041 17.1132 116.342 17.1132H116.381C120.64 17.1132 121.889 15.6498 122.23 14.8938C122.322 14.6876 122.518 14.5478 122.744 14.5478H132.847C132.908 14.5478 132.918 14.6271 132.918 14.6271Z" fill="white"/>
<path fill-rule="evenodd" clip-rule="evenodd" d="M135.798 1.0506H145.345C145.652 1.0506 145.9 1.29894 145.9 1.60546V4.79991C146.965 3.81298 150.241 0.576843 156.871 0.576843H157.108C165.041 0.576843 167.527 5.27366 167.527 8.62847V21.7283C167.527 22.0349 167.278 22.2837 166.972 22.2837H157.308C157.001 22.2837 156.753 22.0349 156.753 21.7283V12.1404C156.753 9.29879 155.293 7.2466 151.622 7.2466C147.991 7.2466 145.979 9.41746 145.979 12.4172V21.7283C145.979 22.0349 145.73 22.2837 145.424 22.2837H135.798C135.492 22.2837 135.243 22.0349 135.243 21.7283V1.60546C135.243 1.29894 135.492 1.0506 135.798 1.0506Z" fill="white"/>
<path fill-rule="evenodd" clip-rule="evenodd" d="M201.854 22.2836H192.316C192.007 22.2836 191.757 22.0339 191.757 21.725V18.4949C190.731 19.5207 187.494 22.7569 180.982 22.7569H180.707C172.813 22.7569 170.523 17.9029 170.523 14.4688V1.60903C170.523 1.30067 170.773 1.05051 171.082 1.05051H180.74C181.048 1.05051 181.299 1.30067 181.299 1.60903V11.1933C181.299 13.9163 182.601 16.0876 186.192 16.0876C189.783 16.0876 191.718 13.7985 191.718 10.917V1.60903C191.718 1.30067 191.968 1.05051 192.276 1.05051H201.854C202.163 1.05051 202.413 1.30067 202.413 1.60903V21.725C202.413 22.0339 202.163 22.2836 201.854 22.2836Z" fill="white"/>
</svg>
