<svg width="39" height="40" viewBox="0 0 39 40" fill="none" xmlns="http://www.w3.org/2000/svg">
<path d="M37.5 20C37.5 30.2533 29.4056 38.5 19.5 38.5C9.59445 38.5 1.5 30.2533 1.5 20C1.5 9.74671 9.59445 1.5 19.5 1.5C29.4056 1.5 37.5 9.74671 37.5 20Z" fill="#363A44" stroke="white" stroke-width="3"/>
<path d="M27.2539 14.2268C27.0776 14.2268 26.9453 14.3629 26.9453 14.5443V19.1031C26.9453 20.532 26.0198 21.666 24.2789 21.666C22.7584 21.666 22.0973 20.8268 21.943 19.7155V17.9691C21.943 16.3361 20.7531 14 16.9407 14H16.8305C13.6352 14 12.0706 15.6103 11.5418 16.0866V14.567C11.5418 14.3856 11.4095 14.2495 11.2332 14.2495H6.71574C6.53945 14.2268 6.40723 14.3856 6.40723 14.567V24.433C6.40723 24.6144 6.53945 24.7505 6.71574 24.7505H11.2553C11.4316 24.7505 11.5638 24.6144 11.5638 24.433V19.8742C11.5638 18.3773 12.5334 17.3113 14.2743 17.3113C15.8609 17.3113 16.5661 18.1278 16.7204 19.3072V20.8948C16.7204 22.5959 17.8222 25 21.6125 25H21.7447C24.8739 25 26.4385 23.3897 26.9233 22.8907V24.433C26.9233 24.6144 27.0555 24.7505 27.2318 24.7505H31.7273C31.9036 24.7505 32.0358 24.6144 32.0358 24.433V14.567C32.0358 14.3856 31.9036 14.2495 31.7273 14.2495H27.2539V14.2268Z" fill="white"/>
</svg>
