<svg width="41" height="52" viewBox="0 0 41 52" fill="none" xmlns="http://www.w3.org/2000/svg">
<path fill-rule="evenodd" clip-rule="evenodd" d="M20.001 6C8.97332 6 0 12.0275 0 19.4363C0 19.9438 0.426018 20.3538 0.953407 20.3538H39.0486C39.5747 20.3538 40.002 19.9438 40.002 19.4363C40.002 12.0275 31.03 6 20.001 6ZM20.001 7.87501C29.2964 7.87501 37.2227 12.64 38.0131 18.4788H1.98894C2.77938 12.64 10.7056 7.87501 20.001 7.87501Z" fill="#333333"/>
<mask id="mask0" mask-type="alpha" maskUnits="userSpaceOnUse" x="0" y="31" width="41" height="15">
<path d="M0.000303268 31.6465H40.0023V46H0.000303268V31.6465Z" fill="white"/>
</mask>
<g mask="url(#mask0)">
<path fill-rule="evenodd" clip-rule="evenodd" d="M39.0489 31.6465H0.954994C0.427604 31.6465 0.000303268 32.0565 0.000303268 32.5627C0.000303268 39.9728 8.97234 46.0003 20.0013 46.0003C31.029 46.0003 40.0023 39.9728 40.0023 32.5627C40.0023 32.0565 39.5763 31.6465 39.0489 31.6465ZM38.0121 33.5215C37.223 39.3603 29.2954 44.1253 20.0013 44.1253C10.7059 44.1253 2.77968 39.3603 1.98924 33.5215H38.0121Z" fill="#333333"/>
</g>
<path d="M40.0897 23.4025C38.7731 23.4025 37.9763 24.5587 37.1332 25.7837C36.2042 27.135 35.2431 28.5312 33.5672 28.5312C31.8927 28.5312 30.9316 27.135 30 25.7837C29.1582 24.5587 28.3614 23.4025 27.0448 23.4025C25.7283 23.4025 24.9314 24.5587 24.0883 25.7837C23.1593 27.135 22.1956 28.5312 20.5211 28.5312C18.8465 28.5312 17.8841 27.135 16.9538 25.7837C16.1121 24.5587 15.3152 23.4025 13.9987 23.4025C12.6834 23.4025 11.8852 24.5587 11.0422 25.7837C10.1145 27.135 9.15206 28.5312 7.47622 28.5312C5.80038 28.5312 4.83927 27.135 3.90896 25.7837C3.06591 24.5587 2.27034 23.4025 0.952503 23.4025" stroke="#333333" stroke-width="1.75911" stroke-linecap="round" stroke-linejoin="round"/>
<path d="M34.4907 32.9179L28.2673 39.2117L22.0438 32.9179" stroke="#333333" stroke-width="1.17274" stroke-linecap="round" stroke-linejoin="round"/>
</svg>
