<svg width="50" height="50" viewBox="0 0 50 50" fill="none" xmlns="http://www.w3.org/2000/svg">
<path fill-rule="evenodd" clip-rule="evenodd" d="M24.0034 6C13.5752 6 5.08968 11.7261 5.08968 18.7645C5.08968 19.2466 5.49254 19.6361 5.99126 19.6361H42.0155C42.5131 19.6361 42.9171 19.2466 42.9171 18.7645C42.9171 11.7261 34.4328 6 24.0034 6ZM24.0034 7.78126C32.7935 7.78126 40.2888 12.308 41.0363 17.8549H6.97049C7.71797 12.308 15.2133 7.78126 24.0034 7.78126Z" fill="#333333"/>
<mask id="mask0" mask-type="alpha" maskUnits="userSpaceOnUse" x="5" y="30" width="38" height="14">
<path d="M5.08997 30.3642H42.9174V44H5.08997V30.3642Z" fill="white"/>
</mask>
<g mask="url(#mask0)">
<path fill-rule="evenodd" clip-rule="evenodd" d="M42.0158 30.3642H5.99276C5.49404 30.3642 5.08997 30.7537 5.08997 31.2346C5.08997 38.2741 13.5743 44.0003 24.0037 44.0003C34.4319 44.0003 42.9174 38.2741 42.9174 31.2346C42.9174 30.7537 42.5146 30.3642 42.0158 30.3642ZM41.0354 32.1454C40.2891 37.6923 32.7926 42.219 24.0037 42.219C15.2136 42.219 7.71825 37.6923 6.97078 32.1454H41.0354Z" fill="#333333"/>
</g>
<path d="M43 22.5323C41.755 22.5323 41.0015 23.6308 40.2043 24.7945C39.3257 26.0782 38.4169 27.4047 36.8321 27.4047C35.2486 27.4047 34.3398 26.0782 33.4588 24.7945C32.6628 23.6308 31.9093 22.5323 30.6643 22.5323C29.4193 22.5323 28.6658 23.6308 27.8685 24.7945C26.99 26.0782 26.0787 27.4047 24.4952 27.4047C22.9117 27.4047 22.0016 26.0782 21.1219 24.7945C20.3259 23.6308 19.5723 22.5323 18.3273 22.5323C17.0836 22.5323 16.3288 23.6308 15.5316 24.7945C14.6543 26.0782 13.7442 27.4047 12.1595 27.4047C10.5747 27.4047 9.66588 26.0782 8.78614 24.7945C7.98892 23.6308 7.23659 22.5323 5.9904 22.5323" stroke="#333333" stroke-width="1.75911" stroke-linecap="round" stroke-linejoin="round"/>
<path d="M37.7054 31.572L31.8203 37.5511L25.9352 31.572" stroke="#333333" stroke-linecap="round" stroke-linejoin="round"/>
</svg>
