<svg width="50" height="50" viewBox="0 0 50 50" fill="none" xmlns="http://www.w3.org/2000/svg">
<path fill-rule="evenodd" clip-rule="evenodd" d="M25.0887 7.24337C23.4412 7.24337 22.1002 8.56602 22.1002 10.192V12.87C22.1002 14.496 23.4412 15.8186 25.0887 15.8186C26.7353 15.8186 28.0755 14.496 28.0755 12.87V10.192C28.0755 8.56602 26.7353 7.24337 25.0887 7.24337ZM41.5697 34.8268C41.4152 34.8268 41.2606 34.7708 41.1384 34.6579C39.614 33.2396 38.4493 31.9015 37.6793 30.677C36.6552 29.0502 35.645 27.152 34.7545 25.4769C33.7723 23.6287 32.8442 21.8838 32.2182 21.1299C31.298 20.0218 28.1995 18.9206 27.0837 18.5888C26.8165 18.5104 26.6349 18.2683 26.6349 17.9943V16.7742C25.6754 17.1456 24.5003 17.1456 23.5416 16.7742V17.9943C23.5416 18.2683 23.3592 18.5104 23.092 18.5888C21.9762 18.9206 18.8777 20.0218 17.9583 21.1299C17.3315 21.8838 16.4034 23.6287 15.4212 25.4769C14.5306 27.152 13.5214 29.0502 12.4973 30.677C11.7307 31.8963 10.5739 33.2267 9.06259 34.6346C8.80766 34.869 8.40953 34.8578 8.17119 34.6088C7.93284 34.358 7.94506 33.9651 8.19738 33.729C9.63096 32.396 10.7179 31.1484 11.4269 30.0213C12.4274 28.4333 13.4245 26.5557 14.3063 24.8988C15.3627 22.9109 16.2768 21.1928 16.984 20.3414C18.1041 18.9929 21.0996 17.9219 22.2818 17.5385V16.0133C21.3982 15.2447 20.8412 14.1203 20.8412 12.87V10.192C20.8412 7.881 22.7463 6 25.0887 6C27.4303 6 29.3353 7.881 29.3353 10.192V12.87C29.3353 14.1203 28.7774 15.2447 27.8948 16.0133V17.5385C29.0769 17.9219 32.0724 18.9929 33.1926 20.3414C33.8989 21.1928 34.813 22.9109 35.8703 24.8988C36.7512 26.5557 37.7483 28.4333 38.7488 30.0213C39.4621 31.1535 40.5561 32.409 42.0027 33.7532C42.2551 33.9875 42.2673 34.3813 42.0281 34.6312C41.905 34.7613 41.7373 34.8268 41.5697 34.8268ZM13.6436 44C11.0401 44 9.22324 42.2448 9.22324 39.7322C9.22324 36.513 11.729 35.2214 13.3869 34.3675C14.8598 33.6101 18.0544 32.1737 19.0732 31.7179L20.1122 24.9384C20.1637 24.5989 20.4867 24.3654 20.8299 24.4171C21.173 24.4688 21.4105 24.785 21.3572 25.1245L20.2667 32.2384C20.2344 32.4469 20.0982 32.6261 19.9027 32.7123C19.8616 32.7312 15.6648 34.5976 13.9701 35.4687C12.0625 36.4519 10.4831 37.4523 10.4831 39.7322C10.4831 41.5417 11.7534 42.7566 13.6436 42.7566C15.5129 42.7566 19.7944 41.6089 23.5722 40.5956L24.9132 40.2371C24.9202 40.2346 24.9281 40.2328 24.9359 40.2311C27.6416 39.5082 30.287 38.7103 31.8777 38.2174L27.6241 36.2106L14.8546 39.7985C14.5202 39.8942 14.1709 39.7003 14.0758 39.3712C13.9806 39.0412 14.1753 38.6965 14.5088 38.6034L27.5089 34.9509C27.6555 34.9086 27.8144 34.9224 27.9524 34.9879L35.6931 38.6396C36.0074 38.7878 36.1401 39.1592 35.9899 39.4685C35.8397 39.7787 35.4652 39.9097 35.1509 39.7624L33.5383 39.0007C32.7805 39.2419 30.3271 40.0148 27.4748 40.8231C30.9278 41.7269 34.7781 42.6679 36.5321 42.6679C38.4231 42.6679 39.6935 41.4521 39.6935 39.6435C39.6935 37.3506 38.1123 36.3485 36.2047 35.3636C34.51 34.4925 30.3114 32.5968 30.2695 32.5779C30.0766 32.4908 29.9412 32.3142 29.9089 32.1074L28.8185 25.1262C28.7652 24.7876 29.0009 24.4696 29.3449 24.4179C29.695 24.3697 30.0111 24.598 30.0635 24.9375L31.1024 31.5869C32.1161 32.0462 35.3159 33.505 36.787 34.2615C38.4467 35.118 40.9524 36.4122 40.9524 39.6435C40.9524 42.156 39.1356 43.9112 36.5321 43.9112C34.4175 43.9112 30.1045 42.8135 25.0887 41.4771L23.9022 41.7959C19.8599 42.879 15.6805 44 13.6436 44Z" fill="#333333"/>
</svg>
