<svg width="36" height="52" viewBox="0 0 36 52" fill="none" xmlns="http://www.w3.org/2000/svg">
<path fill-rule="evenodd" clip-rule="evenodd" d="M17.9881 7.30881C16.2539 7.30881 14.8423 8.70107 14.8423 10.4126V13.2316C14.8423 14.9431 16.2539 16.3354 17.9881 16.3354C19.7214 16.3354 21.1321 14.9431 21.1321 13.2316V10.4126C21.1321 8.70107 19.7214 7.30881 17.9881 7.30881ZM35.3365 36.344C35.1739 36.344 35.0112 36.285 34.8825 36.1662C33.2779 34.6733 32.0519 33.2647 31.2414 31.9758C30.1633 30.2634 29.1 28.2653 28.1626 26.502C27.1287 24.5565 26.1518 22.7198 25.4929 21.9262C24.5242 20.7598 21.2626 19.6006 20.0881 19.2514C19.8069 19.1689 19.6157 18.914 19.6157 18.6256V17.3412C18.6057 17.7322 17.3687 17.7322 16.3596 17.3412V18.6256C16.3596 18.914 16.1675 19.1689 15.8863 19.2514C14.7118 19.6006 11.4502 20.7598 10.4825 21.9262C9.82259 22.7198 8.84567 24.5565 7.81177 26.502C6.87436 28.2653 5.81197 30.2634 4.73396 31.9758C3.92705 33.2592 2.70935 34.6597 1.11852 36.1417C0.850164 36.3884 0.431089 36.3766 0.180196 36.1145C-0.0706979 35.8506 -0.0578315 35.437 0.207766 35.1885C1.7168 33.7853 2.86099 32.472 3.60723 31.2856C4.66044 29.614 5.70996 27.6376 6.63818 25.8934C7.75019 23.801 8.71241 21.9924 9.45682 21.0963C10.6359 19.6768 13.7891 18.5494 15.0335 18.1458V16.5404C14.1034 15.7313 13.5171 14.5477 13.5171 13.2316V10.4126C13.5171 7.98 15.5224 6 17.9881 6C20.4529 6 22.4582 7.98 22.4582 10.4126V13.2316C22.4582 14.5477 21.871 15.7313 20.9419 16.5404V18.1458C22.1862 18.5494 25.3394 19.6768 26.5185 21.0963C27.262 21.9924 28.2242 23.801 29.3371 25.8934C30.2644 27.6376 31.314 29.614 32.3672 31.2856C33.118 32.4774 34.2695 33.7989 35.7924 35.2139C36.058 35.4606 36.0708 35.8751 35.819 36.1381C35.6894 36.2751 35.513 36.344 35.3365 36.344ZM5.94064 46C3.20011 46 1.28762 44.1524 1.28762 41.5076C1.28762 38.119 3.92522 36.7594 5.67044 35.8605C7.22084 35.0633 10.5835 33.5513 11.656 33.0715L12.7497 25.9351C12.8039 25.5778 13.1439 25.332 13.5051 25.3864C13.8663 25.4408 14.1163 25.7737 14.0602 26.1311L12.9123 33.6193C12.8783 33.8388 12.735 34.0275 12.5291 34.1182C12.4859 34.1381 8.06818 36.1027 6.28435 37.0197C4.27628 38.0546 2.61377 39.1076 2.61377 41.5076C2.61377 43.4123 3.95095 44.6912 5.94064 44.6912C7.90827 44.6912 12.4152 43.4831 16.3918 42.4164L17.8034 42.0391C17.8107 42.0364 17.819 42.0346 17.8273 42.0327C20.6753 41.2718 23.46 40.4319 25.1344 39.9131L20.657 37.8006L7.21532 41.5774C6.86334 41.6781 6.49573 41.474 6.39555 41.1275C6.29538 40.7802 6.50032 40.4174 6.85139 40.3194L20.5357 36.4746C20.69 36.4301 20.8573 36.4447 21.0025 36.5136L29.1506 40.3575C29.4814 40.5135 29.6211 40.9044 29.463 41.23C29.305 41.5566 28.9107 41.6944 28.5799 41.5393L26.8824 40.7375C26.0847 40.9915 23.5023 41.8051 20.4998 42.6559C24.1345 43.6073 28.1874 44.5978 30.0338 44.5978C32.0244 44.5978 33.3615 43.318 33.3615 41.4142C33.3615 39.0006 31.6972 37.9458 29.6891 36.909C27.9053 35.9921 23.4857 33.9966 23.4416 33.9767C23.2385 33.8851 23.0961 33.6991 23.062 33.4815L21.9142 26.1329C21.8581 25.7764 22.1063 25.4417 22.4684 25.3873C22.8369 25.3365 23.1696 25.5769 23.2247 25.9342L24.3184 32.9336C25.3853 33.4171 28.7536 34.9526 30.3021 35.749C32.0492 36.6506 34.6868 38.0129 34.6868 41.4142C34.6868 44.059 32.7743 45.9066 30.0338 45.9066C27.8079 45.9066 23.2679 44.751 17.9881 43.3443L16.7392 43.6799C12.4841 44.82 8.08472 46 5.94064 46Z" fill="#333333"/>
</svg>
