<svg width="50" height="50" viewBox="0 0 50 50" fill="none" xmlns="http://www.w3.org/2000/svg">
<path fill-rule="evenodd" clip-rule="evenodd" d="M25.2861 5.9996C19.0626 5.9996 14 10.78 14 16.6549C14 17.4424 14.6375 18.0799 15.425 18.0799H20.175C20.9616 18.0799 21.6 17.4424 21.6 16.6549C21.6 14.2 22.3762 13.4514 24.9251 13.4514C26.352 13.4514 28.2501 13.859 28.2501 17.3864C28.2501 21.3108 26.6911 23.5614 23.9751 23.5614H21.125C17.1958 23.5614 14 27.1838 14 31.6364V42.5748C14 43.3623 14.6375 43.9998 15.425 43.9998H35.3751C36.1617 43.9998 36.8001 43.3623 36.8001 42.5748V18.5064C36.8001 9.86707 31.0174 5.9996 25.2861 5.9996ZM25.2861 7.42461C30.6232 7.42461 35.3751 11.1011 35.3751 18.5064V42.5748H15.425V31.6364C15.425 27.9333 17.9644 24.9864 21.125 24.9864H23.9751C26.8251 24.9864 29.6751 22.941 29.6751 17.3864C29.6751 13.6832 27.7751 12.0264 24.9251 12.0264C22.075 12.0264 20.175 12.9527 20.175 16.6549H15.425C15.425 11.4555 19.9499 7.42461 25.2861 7.42461Z" fill="#333333"/>
<path fill-rule="evenodd" clip-rule="evenodd" d="M18.2746 39.7974H32.5247V35.1689H18.2746V39.7974Z" stroke="#333333" stroke-width="1.00002" stroke-linecap="round" stroke-linejoin="round"/>
</svg>
