<svg width="50" height="50" viewBox="0 0 50 50" fill="none" xmlns="http://www.w3.org/2000/svg">
<path fill-rule="evenodd" clip-rule="evenodd" d="M41 13L24.5 32L8 13H41Z" stroke="#333333" stroke-width="1.72131" stroke-linecap="round" stroke-linejoin="round"/>
<path d="M24.496 31.5012V43" stroke="#333333" stroke-width="1.72131" stroke-linecap="round" stroke-linejoin="round"/>
<path fill-rule="evenodd" clip-rule="evenodd" d="M34.1643 2.20496C32.8871 2.20496 31.6581 2.91758 31.0636 4.13971C30.234 5.84496 30.9489 7.90823 32.6553 8.73791C33.1384 8.97315 33.6514 9.08446 34.1563 9.08446C35.4323 9.08446 36.6614 8.37299 37.2558 7.15086C38.0855 5.44446 37.3705 3.38004 35.6641 2.55037C35.1799 2.31627 34.6681 2.20496 34.1643 2.20496ZM34.1643 3.3525C34.5109 3.3525 34.8471 3.42938 35.1615 3.58315C36.2999 4.13627 36.7761 5.51102 36.223 6.64938C35.8432 7.432 35.0318 7.93692 34.1563 7.93692C33.8086 7.93692 33.4723 7.86004 33.1568 7.70627C32.0195 7.15315 31.5433 5.7784 32.0953 4.64233C32.4763 3.85856 33.2887 3.3525 34.1643 3.3525Z" fill="#333333"/>
<path d="M32.9114 8.22424L26.8903 20.6085" stroke="#333333" stroke-linecap="round" stroke-linejoin="round"/>
<path d="M17 43H31.7402" stroke="#333333" stroke-width="1.72131" stroke-linecap="round" stroke-linejoin="round"/>
</svg>
