<svg width="46" height="46" viewBox="0 0 46 46" fill="none" xmlns="http://www.w3.org/2000/svg">
<g filter="url(#filter0_d)">
<path fill-rule="evenodd" clip-rule="evenodd" d="M23 41C32.9411 41 41 32.9411 41 23C41 13.0589 32.9411 5 23 5C13.0589 5 5 13.0589 5 23C5 32.9411 13.0589 41 23 41ZM18 14C16.8954 14 16 14.8954 16 16V33L23 27.7222L30 33V16C30 14.8954 29.1046 14 28 14H18Z" fill="white"/>
<path d="M16 33H15C15 33.3792 15.2145 33.7258 15.5539 33.895C15.8933 34.0642 16.2992 34.0268 16.602 33.7985L16 33ZM23 27.7222L23.602 26.9237C23.2456 26.655 22.7544 26.655 22.398 26.9237L23 27.7222ZM30 33L29.398 33.7985C29.7008 34.0268 30.1067 34.0642 30.4461 33.895C30.7855 33.7258 31 33.3792 31 33H30ZM40 23C40 32.3888 32.3888 40 23 40V42C33.4934 42 42 33.4934 42 23H40ZM23 6C32.3888 6 40 13.6112 40 23H42C42 12.5066 33.4934 4 23 4V6ZM6 23C6 13.6112 13.6112 6 23 6V4C12.5066 4 4 12.5066 4 23H6ZM23 40C13.6112 40 6 32.3888 6 23H4C4 33.4934 12.5066 42 23 42V40ZM17 16C17 15.4477 17.4477 15 18 15V13C16.3431 13 15 14.3431 15 16H17ZM17 33V16H15V33H17ZM22.398 26.9237L15.398 32.2015L16.602 33.7985L23.602 28.5207L22.398 26.9237ZM30.602 32.2015L23.602 26.9237L22.398 28.5207L29.398 33.7985L30.602 32.2015ZM29 16V33H31V16H29ZM28 15C28.5523 15 29 15.4477 29 16H31C31 14.3431 29.6569 13 28 13V15ZM18 15H28V13H18V15Z" fill="white"/>
</g>
<defs>
<filter id="filter0_d" x="0" y="0" width="46" height="46" filterUnits="userSpaceOnUse" color-interpolation-filters="sRGB">
<feFlood flood-opacity="0" result="BackgroundImageFix"/>
<feColorMatrix in="SourceAlpha" type="matrix" values="0 0 0 0 0 0 0 0 0 0 0 0 0 0 0 0 0 0 127 0"/>
<feOffset/>
<feGaussianBlur stdDeviation="2"/>
<feColorMatrix type="matrix" values="0 0 0 0 0 0 0 0 0 0 0 0 0 0 0 0 0 0 0.5 0"/>
<feBlend mode="normal" in2="BackgroundImageFix" result="effect1_dropShadow"/>
<feBlend mode="normal" in="SourceGraphic" in2="effect1_dropShadow" result="shape"/>
</filter>
</defs>
</svg>
