<svg width="24" height="52" viewBox="0 0 24 52" fill="none" xmlns="http://www.w3.org/2000/svg">
<mask id="mask0" mask-type="alpha" maskUnits="userSpaceOnUse" x="0" y="6" width="24" height="41">
<path d="M0 6H24V46.0005H0V6Z" fill="white"/>
</mask>
<g mask="url(#mask0)">
<path fill-rule="evenodd" clip-rule="evenodd" d="M11.8802 5.9996C5.32909 5.9996 0 11.0317 0 17.2158C0 18.0448 0.671011 18.7158 1.50003 18.7158H6.50011C7.32812 18.7158 8.00013 18.0448 8.00013 17.2158C8.00013 14.6317 8.81715 13.8437 11.5002 13.8437C13.0022 13.8437 15.0003 14.2727 15.0003 17.9858C15.0003 22.1169 13.3592 24.4859 10.5002 24.4859H7.50013C3.36406 24.4859 0 28.299 0 32.9861V44.5002C0 45.3293 0.671011 46.0003 1.50003 46.0003H22.5004C23.3284 46.0003 24.0004 45.3293 24.0004 44.5002V19.1648C24.0004 10.0707 17.9133 5.9996 11.8802 5.9996ZM11.8802 7.49963C17.4983 7.49963 22.5004 11.3697 22.5004 19.1648V44.5002H1.50003V32.9861C1.50003 29.088 4.17307 25.9859 7.50013 25.9859H10.5002C13.5002 25.9859 16.5003 23.8329 16.5003 17.9858C16.5003 14.0877 14.5002 12.3437 11.5002 12.3437C8.50014 12.3437 6.50011 13.3187 6.50011 17.2158H1.50003C1.50003 11.7427 6.26311 7.49963 11.8802 7.49963Z" fill="#333333"/>
<path fill-rule="evenodd" clip-rule="evenodd" d="M4.49967 41.5766H19.4999V36.7045H4.49967V41.5766Z" stroke="#333333" stroke-width="1.00002" stroke-linecap="round" stroke-linejoin="round"/>
</g>
</svg>
