<svg width="55" height="23" viewBox="0 0 55 23" fill="none" xmlns="http://www.w3.org/2000/svg">
<path d="M44.6609 0.472103C44.2833 0.472103 44 0.755365 44 1.13305V10.6223C44 13.5966 42.0172 15.9571 38.2876 15.9571C35.03 15.9571 33.6137 14.2103 33.2833 11.897V8.2618C33.2833 4.86266 30.7339 0 22.5665 0H22.3305C15.485 0 12.133 3.35193 11 4.34335V1.18026C11 0.802575 10.7167 0.519313 10.3391 0.519313H0.660944C0.283262 0.472103 0 0.802575 0 1.18026V21.7167C0 22.0944 0.283262 22.3777 0.660944 22.3777H10.3863C10.7639 22.3777 11.0472 22.0944 11.0472 21.7167V12.2275C11.0472 9.11159 13.1245 6.8927 16.8541 6.8927C20.2532 6.8927 21.7639 8.59227 22.0944 11.0472V14.3519C22.0944 17.8927 24.4549 22.897 32.5751 22.897H32.8584C39.5622 22.897 42.9142 19.5451 43.9528 18.5064V21.7167C43.9528 22.0944 44.2361 22.3777 44.6137 22.3777H54.2446C54.6223 22.3777 54.9056 22.0944 54.9056 21.7167V1.18026C54.9056 0.802575 54.6223 0.519313 54.2446 0.519313H44.6609V0.472103Z" fill="white"/>
</svg>
