<svg width="16" height="17" viewBox="0 0 16 17" fill="none" xmlns="http://www.w3.org/2000/svg">
<path fill-rule="evenodd" clip-rule="evenodd" d="M15.117 0.992188H0.883047C0.395303 0.992188 0 1.38749 0 1.87523V16.1091C0 16.5968 0.395303 16.9922 0.883047 16.9922H8.54613V10.7961H6.46099V8.3814H8.54613V6.60063C8.54613 4.53408 9.8083 3.40878 11.6518 3.40878C12.535 3.40878 13.2939 3.47448 13.5151 3.50386V5.66357L12.2365 5.66417C11.2339 5.66417 11.0397 6.14058 11.0397 6.8397V8.3814H13.4309L13.1196 10.7961H11.0397V16.9922H15.117C15.6046 16.9922 16 16.5968 16 16.1091V1.87523C16 1.38749 15.6046 0.992188 15.117 0.992188Z" fill="white"/>
</svg>
